# xmcd
#
# Track frame offsets:
#       150
#       16379
#       32262
#       51306
#       71837
#       89437
#       102342
#       118938
#       136850
#       159009
#       175639
#       195114
#       210822
#       222694
#
# Disc length: 3181 seconds
#
# Revision: 2
# Processed by: cddbd v1.4PL0 Copyright (c) Steve Scherf et al.
# Submitted via: CD-DA_X-Tractor v0.23
#
DISCID=b50c6b0e
DTITLE=Denise McNavish - Combined cd's
DYEAR=2002
DGENRE=
TTITLE0=cross my heart
TTITLE1=did you tell her about me
TTITLE2=don't even go there
TTITLE3=knockin' on heaven's door 
TTITLE4=the other side of love
TTITLE5=wrong side of memphis
TTITLE6=a broken wing
TTITLE7=because you love me
TTITLE8=cowboy take me away
TTITLE9=honey i'm home
TTITLE10=how do i live
TTITLE11=independance day
TTITLE12=my baby loves me
TTITLE13=you were mine
EXTD=
EXTT0=
EXTT1=
EXTT2=
EXTT3=
EXTT4=
EXTT5=
EXTT6=
EXTT7=
EXTT8=
EXTT9=
EXTT10=
EXTT11=
EXTT12=
EXTT13=
PLAYORDER=
